{
	"asset":{
		"generator":"Khronos glTF Blender I/O v3.5.30",
		"version":"2.0"
	},
	"scene":0,
	"scenes":[
		{
			"name":"Scene",
			"nodes":[
				0,
				1,
				2,
				3,
				4,
				5,
				6
			]
		}
	],
	"nodes":[
		{
			"mesh":0,
			"name":"Core",
			"translation":[
				0,
				200,
				0
			]
		},
		{
			"mesh":1,
			"name":"Walls",
			"translation":[
				0,
				200,
				0
			]
		},
		{
			"mesh":2,
			"name":"WallTop",
			"translation":[
				0,
				200,
				0
			]
		},
		{
			"mesh":3,
			"name":"WallBottom",
			"translation":[
				0,
				200,
				0
			]
		},
		{
			"mesh":4,
			"name":"WallsOutside",
			"rotation":[
				-0.46995025873184204,
				-0.5283434391021729,
				-0.5283433794975281,
				0.4699503183364868
			],
			"translation":[
				26.829822540283203,
				93.53922271728516,
				47.865386962890625
			]
		},
		{
			"mesh":5,
			"name":"WindowGlass",
			"rotation":[
				-0.46995025873184204,
				-0.5283434391021729,
				-0.5283433794975281,
				0.4699503183364868
			],
			"translation":[
				26.829816818237305,
				93.53922271728516,
				47.86539077758789
			]
		},
		{
			"mesh":6,
			"name":"WindowFrame",
			"rotation":[
				-0.46995025873184204,
				-0.5283434391021729,
				-0.5283433794975281,
				0.4699503183364868
			],
			"translation":[
				26.829818725585938,
				93.2392349243164,
				47.86538314819336
			]
		}
	],
	"materials":[
		{
			"doubleSided":true,
			"emissiveFactor":[
				1,
				1,
				1
			],
			"emissiveTexture":{
				"index":0
			},
			"name":"walls_BLD_OFFICE_05",
			"pbrMetallicRoughness":{
				"baseColorTexture":{
					"index":1
				},
				"metallicFactor":0,
				"roughnessFactor":0.8929713368415833
			}
		},
		{
			"doubleSided":true,
			"name":"material",
			"pbrMetallicRoughness":{
				"baseColorTexture":{
					"index":2
				},
				"metallicFactor":0,
				"roughnessFactor":0.8645261526107788
			}
		},
		{
			"doubleSided":true,
			"name":"walls_exterior",
			"pbrMetallicRoughness":{
				"baseColorFactor":[
					0,
					0,
					0,
					1
				],
				"metallicFactor":0,
				"roughnessFactor":0.6000000238418579
			}
		},
		{
			"alphaMode":"BLEND",
			"doubleSided":true,
			"name":"glass",
			"pbrMetallicRoughness":{
				"baseColorFactor":[
					0.08075229823589325,
					0.08075229823589325,
					0.08075229823589325,
					0.25
				],
				"metallicFactor":0,
				"roughnessFactor":0.007221725769340992
			}
		},
		{
			"doubleSided":true,
			"name":"rams",
			"pbrMetallicRoughness":{
				"baseColorFactor":[
					0.019950568675994873,
					0.019950568675994873,
					0.019950568675994873,
					1
				],
				"metallicFactor":0,
				"roughnessFactor":0.6000000238418579
			}
		}
	],
	"meshes":[
		{
			"name":"BLD_OFFICE_05_walls [BLD_OFFICE_05]_0",
			"primitives":[
				{
					"attributes":{
						"POSITION":0,
						"TEXCOORD_0":1,
						"NORMAL":2
					},
					"indices":3,
					"material":0
				}
			]
		},
		{
			"name":"BLD_OFFICE_06_w2_0",
			"primitives":[
				{
					"attributes":{
						"POSITION":4,
						"TEXCOORD_0":5,
						"NORMAL":6
					},
					"indices":7,
					"material":1
				}
			]
		},
		{
			"name":"BLD_OFFICE_09_w2_0",
			"primitives":[
				{
					"attributes":{
						"POSITION":8,
						"TEXCOORD_0":9,
						"NORMAL":10
					},
					"indices":11,
					"material":1
				}
			]
		},
		{
			"name":"BLD_OFFICE_010_w2_0",
			"primitives":[
				{
					"attributes":{
						"POSITION":12,
						"TEXCOORD_0":13,
						"NORMAL":14
					},
					"indices":11,
					"material":1
				}
			]
		},
		{
			"name":"BLD_OFFICE_00_walls_exterior_0",
			"primitives":[
				{
					"attributes":{
						"POSITION":15,
						"NORMAL":16
					},
					"indices":17,
					"material":2
				}
			]
		},
		{
			"name":"BLD_OFFICE_01_glass_0",
			"primitives":[
				{
					"attributes":{
						"POSITION":18,
						"NORMAL":19
					},
					"indices":20,
					"material":3
				}
			]
		},
		{
			"name":"BLD_OFFICE_02_rams_0",
			"primitives":[
				{
					"attributes":{
						"POSITION":21,
						"NORMAL":22
					},
					"indices":23,
					"material":4
				}
			]
		}
	],
	"textures":[
		{
			"sampler":0,
			"source":0
		},
		{
			"sampler":0,
			"source":0
		},
		{
			"sampler":0,
			"source":1
		}
	],
	"images":[
		{
			"bufferView":4,
			"mimeType":"image/jpeg",
			"name":"walls_BLD_OFFICE_05_baseColor"
		},
		{
			"bufferView":9,
			"mimeType":"image/jpeg",
			"name":"material_baseColor"
		}
	],
	"accessors":[
		{
			"bufferView":0,
			"componentType":5126,
			"count":1460,
			"max":[
				160.54547119140625,
				-22.951820373535156,
				88.68049621582031
			],
			"min":[
				-122.29961395263672,
				-182.48297119140625,
				-7.151741027832031
			],
			"type":"VEC3"
		},
		{
			"bufferView":1,
			"componentType":5126,
			"count":1460,
			"type":"VEC2"
		},
		{
			"bufferView":2,
			"componentType":5126,
			"count":1460,
			"type":"VEC3"
		},
		{
			"bufferView":3,
			"componentType":5123,
			"count":3156,
			"type":"SCALAR"
		},
		{
			"bufferView":5,
			"componentType":5126,
			"count":355,
			"max":[
				160.8719024658203,
				-22.98291015625,
				90.30899047851562
			],
			"min":[
				-122.66097259521484,
				-182.48297119140625,
				23.669105529785156
			],
			"type":"VEC3"
		},
		{
			"bufferView":6,
			"componentType":5126,
			"count":355,
			"type":"VEC2"
		},
		{
			"bufferView":7,
			"componentType":5126,
			"count":355,
			"type":"VEC3"
		},
		{
			"bufferView":8,
			"componentType":5123,
			"count":948,
			"type":"SCALAR"
		},
		{
			"bufferView":10,
			"componentType":5126,
			"count":84,
			"max":[
				160.54550170898438,
				-5.17095947265625,
				90.30897521972656
			],
			"min":[
				-122.29959106445312,
				-22.98297119140625,
				-7.151771545410156
			],
			"type":"VEC3"
		},
		{
			"bufferView":11,
			"componentType":5126,
			"count":84,
			"type":"VEC2"
		},
		{
			"bufferView":12,
			"componentType":5126,
			"count":84,
			"type":"VEC3"
		},
		{
			"bufferView":13,
			"componentType":5123,
			"count":156,
			"type":"SCALAR"
		},
		{
			"bufferView":14,
			"componentType":5126,
			"count":84,
			"max":[
				160.54550170898438,
				-182.48306274414062,
				90.30899810791016
			],
			"min":[
				-122.29959106445312,
				-200.29507446289062,
				-7.1517486572265625
			],
			"type":"VEC3"
		},
		{
			"bufferView":15,
			"componentType":5126,
			"count":84,
			"type":"VEC2"
		},
		{
			"bufferView":16,
			"componentType":5126,
			"count":84,
			"type":"VEC3"
		},
		{
			"bufferView":17,
			"componentType":5126,
			"count":864,
			"max":[
				-29.623977661132812,
				130.30723571777344,
				74.61685943603516
			],
			"min":[
				-63.96851348876953,
				-148.9065704345703,
				-76.02200317382812
			],
			"type":"VEC3"
		},
		{
			"bufferView":18,
			"componentType":5126,
			"count":864,
			"type":"VEC3"
		},
		{
			"bufferView":19,
			"componentType":5123,
			"count":1620,
			"type":"SCALAR"
		},
		{
			"bufferView":20,
			"componentType":5126,
			"count":1281,
			"max":[
				-6.284614562988281,
				130.63516235351562,
				83.47799682617188
			],
			"min":[
				-64.31204986572266,
				-153.9556884765625,
				-76.02200317382812
			],
			"type":"VEC3"
		},
		{
			"bufferView":21,
			"componentType":5126,
			"count":1281,
			"type":"VEC3"
		},
		{
			"bufferView":22,
			"componentType":5123,
			"count":4776,
			"type":"SCALAR"
		},
		{
			"bufferView":23,
			"componentType":5126,
			"count":6982,
			"max":[
				-6.062908172607422,
				130.93629455566406,
				83.95474243164062
			],
			"min":[
				-64.6203384399414,
				-154.26373291015625,
				-76.02200317382812
			],
			"type":"VEC3"
		},
		{
			"bufferView":24,
			"componentType":5126,
			"count":6982,
			"type":"VEC3"
		},
		{
			"bufferView":25,
			"componentType":5123,
			"count":17100,
			"type":"SCALAR"
		}
	],
	"bufferViews":[
		{
			"buffer":0,
			"byteLength":17520,
			"byteOffset":0,
			"target":34962
		},
		{
			"buffer":0,
			"byteLength":11680,
			"byteOffset":17520,
			"target":34962
		},
		{
			"buffer":0,
			"byteLength":17520,
			"byteOffset":29200,
			"target":34962
		},
		{
			"buffer":0,
			"byteLength":6312,
			"byteOffset":46720,
			"target":34963
		},
		{
			"buffer":0,
			"byteLength":1908241,
			"byteOffset":53032
		},
		{
			"buffer":0,
			"byteLength":4260,
			"byteOffset":1961276,
			"target":34962
		},
		{
			"buffer":0,
			"byteLength":2840,
			"byteOffset":1965536,
			"target":34962
		},
		{
			"buffer":0,
			"byteLength":4260,
			"byteOffset":1968376,
			"target":34962
		},
		{
			"buffer":0,
			"byteLength":1896,
			"byteOffset":1972636,
			"target":34963
		},
		{
			"buffer":0,
			"byteLength":435127,
			"byteOffset":1974532
		},
		{
			"buffer":0,
			"byteLength":1008,
			"byteOffset":2409660,
			"target":34962
		},
		{
			"buffer":0,
			"byteLength":672,
			"byteOffset":2410668,
			"target":34962
		},
		{
			"buffer":0,
			"byteLength":1008,
			"byteOffset":2411340,
			"target":34962
		},
		{
			"buffer":0,
			"byteLength":312,
			"byteOffset":2412348,
			"target":34963
		},
		{
			"buffer":0,
			"byteLength":1008,
			"byteOffset":2412660,
			"target":34962
		},
		{
			"buffer":0,
			"byteLength":672,
			"byteOffset":2413668,
			"target":34962
		},
		{
			"buffer":0,
			"byteLength":1008,
			"byteOffset":2414340,
			"target":34962
		},
		{
			"buffer":0,
			"byteLength":10368,
			"byteOffset":2415348,
			"target":34962
		},
		{
			"buffer":0,
			"byteLength":10368,
			"byteOffset":2425716,
			"target":34962
		},
		{
			"buffer":0,
			"byteLength":3240,
			"byteOffset":2436084,
			"target":34963
		},
		{
			"buffer":0,
			"byteLength":15372,
			"byteOffset":2439324,
			"target":34962
		},
		{
			"buffer":0,
			"byteLength":15372,
			"byteOffset":2454696,
			"target":34962
		},
		{
			"buffer":0,
			"byteLength":9552,
			"byteOffset":2470068,
			"target":34963
		},
		{
			"buffer":0,
			"byteLength":83784,
			"byteOffset":2479620,
			"target":34962
		},
		{
			"buffer":0,
			"byteLength":83784,
			"byteOffset":2563404,
			"target":34962
		},
		{
			"buffer":0,
			"byteLength":34200,
			"byteOffset":2647188,
			"target":34963
		}
	],
	"samplers":[
		{
			"magFilter":9729,
			"minFilter":9987
		}
	],
	"buffers":[
		{
			"byteLength":2681388,
			"uri":"data:application/octet-stream;base64,"
		}
	]
}
